Coordinates
version=1
nRows=13
nColumns=40
inDegrees=yes

Units are S.I. units (second, meters, Newtons, ...)
If the header above contains a line with 'inDegrees', this indicates whether rotational values are in degrees (yes) or radians (no).

endheader
time	pelvis_tilt	pelvis_list	pelvis_rotation	pelvis_tx	pelvis_ty	pelvis_tz	hip_flexion_r	hip_adduction_r	hip_rotation_r	knee_angle_r	knee_angle_r_beta	ankle_angle_r	subtalar_angle_r	mtp_angle_r	hip_flexion_l	hip_adduction_l	hip_rotation_l	knee_angle_l	knee_angle_l_beta	ankle_angle_l	subtalar_angle_l	mtp_angle_l	lumbar_extension	lumbar_bending	lumbar_rotation	arm_flex_r	arm_add_r	arm_rot_r	elbow_flex_r	pro_sup_r	wrist_flex_r	wrist_dev_r	arm_flex_l	arm_add_l	arm_rot_l	elbow_flex_l	pro_sup_l	wrist_flex_l	wrist_dev_l
      1.59000000	      0.48538868	      3.35470572	    -88.08117268	      0.21567295	      0.88984200	      0.68980483	     29.03491066	     -4.04091762	      0.54705427	      7.31986545	      0.12775575	      3.54807770	      0.00000000	      0.00000000	    -16.76561721	      0.28214119	      8.40461473	      4.62157403	      0.08066168	     18.44911983	     -0.00000000	     -0.00000000	     -4.70376965	     -0.75848569	    -12.18378617	     -0.00000000	      0.00000000	      0.00000000	      0.00000000	      0.00000000	      0.00000000	     -0.00000000	      0.00000000	      0.00000000	     -0.00000000	      0.00000000	      0.00000000	      0.00000000	     -0.00000000
      1.60000000	      0.46649988	      3.38989621	    -88.05138552	      0.21363520	      0.88824969	      0.70102604	     29.03779818	     -3.86219385	      0.65627213	      8.10577742	      0.14147250	      1.85710755	      0.00000000	      0.00000000	    -16.84670520	      0.12499846	      8.15769237	      5.89106999	      0.10281857	     18.85294987	      0.00000000	      0.00000000	     -4.51717519	     -0.62488976	    -12.27881635	      0.00000000	      0.00000000	      0.00000000	      0.00000000	      0.00000000	      0.00000000	      0.00000000	      0.00000000	      0.00000000	      0.00000000	      0.00000000	      0.00000000	      0.00000000	      0.00000000
      1.61000000	      0.40089759	      3.39493462	    -87.98581322	      0.21157721	      0.88694264	      0.71238655	     29.01068568	     -3.63747047	      0.86546070	      9.10356742	      0.15888723	      1.04093287	      0.00000000	      0.00000000	    -16.96910207	     -0.09886240	      8.27863700	      7.05767898	      0.12317974	     18.39553648	      0.00000000	      0.00000000	     -4.35685085	     -0.42337982	    -12.43946650	      0.00000000	      0.00000000	      0.00000000	      0.00000000	      0.00000000	      0.00000000	      0.00000000	      0.00000000	      0.00000000	      0.00000000	      0.00000000	      0.00000000	      0.00000000	      0.00000000
      1.62000000	      0.38940026	      3.43576582	    -88.02697379	      0.20934160	      0.88577530	      0.72370724	     29.10159266	     -3.46597311	      0.66430195	     10.08797852	      0.17606844	     -1.07011862	      0.00000000	      0.00000000	    -16.81698339	     -0.25532044	      7.69823253	      8.65866371	      0.15112219	     18.50919573	      0.00000000	      0.00000000	     -4.15299262	     -0.30256747	    -12.51465172	      0.00000000	      0.00000000	      0.00000000	      0.00000000	      0.00000000	      0.00000000	      0.00000000	      0.00000000	      0.00000000	      0.00000000	      0.00000000	      0.00000000	      0.00000000	      0.00000000
      1.63000000	      0.31039149	      3.46033047	    -88.03477395	      0.20705908	      0.88495092	      0.73512274	     29.12770400	     -3.22825730	      0.56629273	     11.13661748	      0.19437064	     -2.48477723	      0.00000000	      0.00000000	    -16.62751654	     -0.50591615	      7.37575130	     10.28388864	      0.17948772	     18.08702605	      0.00000000	      0.00000000	     -3.95301670	     -0.10693177	    -12.61430773	      0.00000000	      0.00000000	      0.00000000	      0.00000000	      0.00000000	      0.00000000	      0.00000000	      0.00000000	      0.00000000	      0.00000000	      0.00000000	      0.00000000	      0.00000000	      0.00000000
      1.64000000	      0.20353262	      3.43278104	    -88.07073809	      0.20469320	      0.88449720	      0.74657863	     29.09268513	     -2.95600229	      0.39807467	     12.23606329	      0.21355959	     -3.63019044	      0.00000000	      0.00000000	    -16.39048440	     -0.79586134	      6.96380621	     12.02909797	      0.20994737	     17.39730346	      0.00000000	      0.00000000	     -3.81829069	      0.12571065	    -12.68989775	      0.00000000	      0.00000000	      0.00000000	      0.00000000	      0.00000000	      0.00000000	      0.00000000	      0.00000000	      0.00000000	      0.00000000	      0.00000000	      0.00000000	      0.00000000	      0.00000000
      1.65000000	      0.08359451	      3.32025891	    -88.11024707	      0.20232904	      0.88448010	      0.75806339	     28.94575568	     -2.68506152	      0.16971151	     13.37706997	      0.23347392	     -4.44306421	      0.00000000	      0.00000000	    -16.11700216	     -1.11962622	      6.45328170	     13.91876278	      0.24292824	     16.41754850	      0.00000000	      0.00000000	     -3.76300044	      0.39169476	    -12.76033574	      0.00000000	      0.00000000	      0.00000000	      0.00000000	      0.00000000	      0.00000000	      0.00000000	      0.00000000	      0.00000000	      0.00000000	      0.00000000	      0.00000000	      0.00000000	      0.00000000
      1.66000000	     -0.06857629	      3.16392887	    -88.16461357	      0.19975594	      0.88485708	      0.76950553	     28.70254796	     -2.35746094	     -0.05506183	     14.49592985	      0.25300170	     -4.91182104	      0.00000000	      0.00000000	    -15.77063139	     -1.51526487	      5.89784031	     15.93956968	      0.27819797	     15.19358191	      0.00000000	      0.00000000	     -3.77988499	      0.62684633	    -12.80247166	      0.00000000	      0.00000000	      0.00000000	      0.00000000	      0.00000000	      0.00000000	      0.00000000	      0.00000000	      0.00000000	      0.00000000	      0.00000000	      0.00000000	      0.00000000	      0.00000000
      1.67000000	     -0.28979477	      3.00640585	    -88.27595836	      0.19700695	      0.88554982	      0.78086870	     28.41152070	     -1.92271507	     -0.25370838	     15.57644187	      0.27186020	     -5.02308844	      0.00000000	      0.00000000	    -15.29260339	     -2.01003310	      5.16026131	     18.11216595	      0.31611693	     13.69997936	      0.00000000	      0.00000000	     -3.79407140	      0.96292150	    -12.79720736	      0.00000000	      0.00000000	      0.00000000	      0.00000000	      0.00000000	      0.00000000	      0.00000000	      0.00000000	      0.00000000	      0.00000000	      0.00000000	      0.00000000	      0.00000000	      0.00000000
      1.68000000	     -0.50832088	      2.79847603	    -88.41141071	      0.19414457	      0.88660639	      0.79213449	     27.99873810	     -1.46750728	     -0.40090557	     16.59733510	      0.28967814	     -4.75943493	      0.00000000	      0.00000000	    -14.74636111	     -2.53784371	      4.36680932	     20.41415161	      0.35629416	     11.96329343	      0.00000000	      0.00000000	     -3.88323433	      1.27574339	    -12.75813077	      0.00000000	      0.00000000	      0.00000000	      0.00000000	      0.00000000	      0.00000000	      0.00000000	      0.00000000	      0.00000000	      0.00000000	      0.00000000	      0.00000000	      0.00000000	      0.00000000
      1.69000000	     -0.75755151	      2.58273393	    -88.58114024	      0.19110400	      0.88795680	      0.80323486	     27.49548327	     -0.93769193	     -0.44439503	     17.51342646	      0.30566696	     -4.14150413	      0.00000000	      0.00000000	    -14.08694494	     -3.14241300	      3.49789215	     22.84861170	      0.39878350	      9.98887332	      0.00000000	      0.00000000	     -3.99902512	      1.60842388	    -12.65367646	      0.00000000	      0.00000000	      0.00000000	      0.00000000	      0.00000000	      0.00000000	      0.00000000	      0.00000000	      0.00000000	      0.00000000	      0.00000000	      0.00000000	      0.00000000	      0.00000000
      1.70000000	     -0.98081241	      2.34199646	    -88.75378184	      0.18803721	      0.88960213	      0.81413237	     26.89179052	     -0.43266374	     -0.50067395	     18.32390296	      0.31981244	     -3.35392793	      0.00000000	     -0.00000000	    -13.34296775	     -3.75078536	      2.67828984	     25.40459647	      0.44339385	      7.90003475	     -0.00000000	     -0.00000000	     -4.16875938	      1.89420886	    -12.57582904	     -0.00000000	      0.00000000	      0.00000000	      0.00000000	      0.00000000	      0.00000000	     -0.00000000	      0.00000000	      0.00000000	      0.00000000	      0.00000000	      0.00000000	     -0.00000000	      0.00000000
      1.71000000	     -1.20086026	      2.11373004	    -88.91439914	      0.18496498	      0.89145138	      0.82484795	     26.18569973	      0.08081499	     -0.50085137	     18.94728881	      0.33069257	     -2.38910467	      0.00000000	      0.00000000	    -12.47530487	     -4.38947873	      1.92375134	     28.08722199	      0.49021450	      5.77614251	      0.00000000	      0.00000000	     -4.34535185	      2.16567261	    -12.47651815	      0.00000000	      0.00000000	      0.00000000	      0.00000000	      0.00000000	      0.00000000	      0.00000000	      0.00000000	      0.00000000	      0.00000000	      0.00000000	      0.00000000	      0.00000000	      0.00000000
